<?xml version="1.0" encoding="UTF-8"?>
<svg id="Layer_1" xmlns="http://www.w3.org/2000/svg" version="1.1" viewBox="0 0 2259 2500">
  <!-- Generator: Adobe Illustrator 29.4.0, SVG Export Plug-In . SVG Version: 2.1.0 Build 152)  -->
  <defs>
    <style>
      .st0 {
        fill: #e0e0e0;
        fill-rule: evenodd;
      }
    </style>
  </defs>
  <path class="st0" d="M640.2,2490h-91.4l-35.7-128.6h-168.6l-35.7,128.6h-88.6l155.7-568.6h100l164.3,568.6ZM487.4,2268.5l-60-214.3-55.7,214.3h115.7ZM968.8,2490h-77.1v-58.6c-12.9,25.7-30,42.9-45.7,50-15.7,8.6-32.9,18.6-50,18.6-31.4,0-62.8-21.5-85.7-57.2-25.7-32.8-37.1-90-37.1-157.1s11.4-128.6,32.9-164.3c22.8-34.3,55.7-55.7,94.3-55.7s61.4,21.4,88.6,60v-204.3h80v568.5h0ZM751.7,2275.7c0,42.8,5.7,81.4,12.9,98.6,12.9,25.7,31.4,42.8,52.9,42.8s35.7-12.9,48.6-28.6c12.9-21.5,22.8-57.2,22.8-100s-7.1-84.3-20-105.7c-11.4-21.4-31.4-35.7-51.4-35.7s-32.9,14.3-47.1,31.5c-12.9,21.4-18.6,54.3-18.6,97.1h0ZM1034.5,2275.7c0-32.9,4.3-68.6,17.1-101.4,14.3-34.3,32.9-60,55.7-77.1,24.3-18.6,54.3-31.4,82.9-31.4,44.3,0,85.7,21.4,112.9,60,30,42.8,45.7,100,45.7,160s-15.7,114.3-45.7,152.9c-31.4,40-68.6,61.4-112.9,61.4s-54.3-10-80-25.7c-25.7-17.2-44.3-42.9-58.6-74.3-12.9-32.9-17.1-75.7-17.1-118.6v-5.7h0ZM1114.5,2285.7c0,42.9,4.3,75.7,17.1,97.1,14.3,21.4,35.7,34.3,55.7,34.3s40-12.9,52.9-34.3c14.3-21.4,22.8-54.3,22.8-97.1s-8.6-78.6-22.8-100c-12.9-24.3-34.3-38.6-52.9-38.6s-40,14.3-51.4,35.7c-12.9,24.3-21.4,60-21.4,102.9h0ZM1411.7,2490v-568.6h80v204.3c22.9-38.6,55.7-60,87.1-60s68.6,21.4,92.9,55.7c24.3,35.7,38.6,90,38.6,160s-14.3,128.6-38.6,161.4c-25.7,35.7-57.1,57.2-88.6,57.2s-35.7-10-51.4-18.6c-17.1-7.1-32.8-28.6-41.4-50v58.6h-78.5ZM1491.6,2275.7c0,42.8,7.2,81.4,14.3,98.6,12.9,25.7,34.3,42.8,57.2,42.8s35.7-12.9,47.1-28.6c12.9-17.2,20-57.2,20-100s-7.1-84.3-20-105.7c-11.4-21.4-31.5-35.7-51.4-35.7s-34.3,14.3-47.1,31.5c-12.8,21.4-20,54.3-20,97.1h0ZM1953.1,2361.4l80,12.9c-8.6,42.8-28.6,78.6-48.6,94.3-22.8,17.2-54.3,31.5-87.1,31.5-48.6,0-91.4-25.7-115.7-68.6-20-35.7-28.6-85.7-28.6-142.8s11.4-124.3,37.1-162.9,62.9-60,102.9-60,80,21.4,104.3,60c27.1,42.8,42.8,107.1,42.8,188.6h-207.1c0,35.7,4.3,60,18.6,78.5,12.8,17.2,28.6,24.3,45.7,24.3s27.1-2.8,32.8-12.9c7.1-8.6,15.7-25.7,22.8-42.8h0ZM1960.2,2247.1c0-30-11.4-57.1-20-72.9-11.4-17.2-28.6-27.1-44.3-27.1s-35.7,14.3-44.3,31.5c-14.3,17.1-18.6,42.8-18.6,68.5h127.2Z"/>
  <path class="st0" d="M205.9,0h685.7L205.9,1670V0ZM1358.8,0h694.3v1648.5L1358.8,0ZM1133.1,638.6l378.6,1001.4h-234.3l-161.4-317.1h-257.1l274.3-684.3Z"/>
</svg>