<svg role="img" aria-label="Human+ Qendra Diagnostike" width="216" height="77" viewBox="0 0 216 77" fill="none" xmlns="http://www.w3.org/2000/svg">
<path d="M52.349 76.795H24.447C10.946 76.795 0 65.85 0 52.348V24.446C0 10.945 10.946 0 24.447 0H52.349C65.851 0 76.796 10.945 76.796 24.446V52.348C76.796 65.85 65.851 76.795 52.349 76.795Z" fill="#111318"/>
<path d="M60.8741 22.2063C57.4401 19.8073 54.1661 22.9803 52.2501 25.7483C50.4061 28.3333 48.8051 30.8533 46.1871 32.5933C41.2551 36.1353 34.2471 35.2043 30.8031 30.1313C29.4231 28.2483 28.6021 26.0173 27.2741 24.2163C24.5481 20.4053 20.6131 21.9153 18.8201 25.7153C17.4221 28.5883 16.6581 31.7263 15.8201 34.8023C14.6371 39.4543 13.7261 44.3023 13.5341 49.1983C13.2761 53.2593 16.9421 57.0283 20.9001 54.7453C22.9351 53.5433 24.5251 51.1033 25.9051 49.1553C27.5771 46.7193 29.6341 44.4863 32.3481 43.2123C37.2551 40.8033 42.9821 42.2693 46.0531 46.7383C48.1171 49.4063 49.0241 54.0073 52.7131 54.7763C57.0421 55.1433 58.6401 49.8933 59.7071 46.5623C61.2321 41.5523 62.3591 36.7143 62.9751 31.4313C63.3501 28.2743 63.8961 24.3703 60.9391 22.2513L60.8741 22.2063Z" fill="white"/>
<path d="M107.269 8.91568V24.2887H105.407V17.4027H97.2657V24.2887H95.4247V8.91568H97.2657V15.6487H105.407V8.91568H107.269Z" fill="#111318"/>
<path d="M120.064 13.3327V24.2887H118.31L118.245 22.3617C117.227 23.5527 115.82 24.5057 113.915 24.5057C111.381 24.5057 109.844 22.8377 109.844 19.7417V13.3327H111.706V18.9627C111.706 21.7127 112.876 22.7517 114.564 22.7517C117.163 22.7517 118.202 20.4787 118.202 18.9187H118.223V13.3327H120.064Z" fill="#111318"/>
<path d="M139.614 17.4685V24.2885H137.752V18.0305C137.752 16.1475 136.908 14.8695 135.327 14.8695C133.443 14.8695 132.253 16.7755 132.122 19.0715V24.2885H130.26V18.0305C130.26 16.1475 129.394 14.8695 127.835 14.8695C125.951 14.8695 124.76 16.7755 124.631 19.0715V24.2885H122.768V13.3325H124.522L124.609 15.2385C125.54 14.0475 126.84 13.1165 128.485 13.1165C130.195 13.1165 131.343 14.0695 131.841 15.5845C132.794 14.2205 134.158 13.1165 135.976 13.1165C138.315 13.1165 139.614 14.9135 139.614 17.4685Z" fill="#111318"/>
<path d="M147.451 22.7517C149.703 22.7517 151.391 20.9547 151.391 18.7887C151.391 16.6677 149.703 14.8697 147.451 14.8697C145.221 14.8697 143.488 16.6677 143.488 18.7887C143.488 20.9547 145.221 22.7517 147.451 22.7517ZM147.169 13.1167C149.226 13.1167 150.893 14.2857 151.587 15.8227L151.673 13.3327H153.448V24.2887H151.673L151.587 21.7987C150.893 23.3357 149.226 24.5057 147.169 24.5057C144.03 24.5057 141.626 21.9497 141.626 18.7887C141.626 15.6717 144.03 13.1167 147.169 13.1167Z" fill="#111318"/>
<path d="M166.373 17.8796V24.2886H164.511V18.6586C164.511 15.9086 163.342 14.8696 161.652 14.8696C159.055 14.8696 158.015 17.1436 158.015 18.7026V24.2886H156.152V13.3326H157.906L157.993 15.2376C158.989 14.0686 160.418 13.1166 162.302 13.1166C164.835 13.1166 166.373 14.7836 166.373 17.8796Z" fill="#111318"/>
<path d="M181.324 18.9841H178.25V22.0371H176.496V18.9841H173.421V17.2301H176.496V14.1341H178.25V17.2301H181.324V18.9841Z" fill="#111318"/>
<path d="M68.8024 52.3835H67.4824C66.9974 52.3835 66.6054 52.7765 66.6054 53.2605V54.5595C66.6054 55.0435 66.2124 55.4365 65.7284 55.4365C65.2434 55.4365 64.8514 55.0435 64.8514 54.5595V53.2605C64.8514 52.7765 64.4584 52.3835 63.9744 52.3835H62.6534C62.1684 52.3835 61.7764 51.9905 61.7764 51.5065C61.7764 51.0225 62.1684 50.6295 62.6534 50.6295H63.9744C64.4584 50.6295 64.8514 50.2365 64.8514 49.7525V48.4105C64.8514 47.9265 65.2434 47.5335 65.7284 47.5335C66.2124 47.5335 66.6054 47.9265 66.6054 48.4105V49.7525C66.6054 50.2365 66.9974 50.6295 67.4824 50.6295H68.8024C69.2864 50.6295 69.6794 51.0225 69.6794 51.5065C69.6794 51.9905 69.2864 52.3835 68.8024 52.3835Z" fill="white"/>
<path d="M105.641 42.466L103.476 40.279L104.753 39.003L106.984 41.254C107.871 40.171 108.391 38.764 108.391 37.249C108.391 33.892 105.836 31.099 102.48 31.099C99.1447 31.099 96.5897 33.892 96.5897 37.249C96.5897 40.605 99.1447 43.398 102.48 43.398C103.649 43.398 104.732 43.051 105.641 42.466ZM109.062 45.931L106.918 43.766C105.684 44.632 104.147 45.152 102.48 45.152C98.1057 45.152 94.7277 41.601 94.7277 37.249C94.7277 32.896 98.1057 29.345 102.48 29.345C106.875 29.345 110.252 32.896 110.252 37.249C110.252 39.284 109.495 41.146 108.261 42.553L110.339 44.632L109.062 45.931Z" fill="#111318"/>
<path d="M113.846 38.699H121.077C120.969 36.989 119.605 35.43 117.461 35.43C115.405 35.43 113.91 36.902 113.846 38.699ZM122.94 40.041H113.846C113.91 42.033 115.383 43.484 117.635 43.484C119.432 43.484 120.514 42.51 120.991 41.535L122.636 41.752C122.203 43.246 120.514 45.152 117.635 45.152C114.322 45.152 111.984 42.704 111.984 39.392C111.984 36.318 114.213 33.762 117.461 33.762C120.818 33.762 122.94 36.47 122.94 39.565V40.041Z" fill="#111318"/>
<path d="M135.302 38.5261V44.9351H133.44V39.3051C133.44 36.5551 132.27 35.5161 130.581 35.5161C127.983 35.5161 126.944 37.7901 126.944 39.3491V44.9351H125.081V33.9791H126.835L126.922 35.8841C127.918 34.7151 129.347 33.7621 131.231 33.7621C133.764 33.7621 135.302 35.4301 135.302 38.5261Z" fill="#111318"/>
<path d="M143.009 43.3977C145.261 43.3977 146.949 41.6007 146.949 39.4357C146.949 37.3147 145.261 35.5167 143.009 35.5167C140.779 35.5167 139.046 37.3147 139.046 39.4357C139.046 41.6007 140.779 43.3977 143.009 43.3977ZM142.727 33.7627C144.784 33.7627 146.451 34.9327 147.145 36.4697V28.6957H149.006V44.9347H147.231L147.145 42.4447C146.451 43.9817 144.784 45.1517 142.727 45.1517C139.588 45.1517 137.184 42.5957 137.184 39.4357C137.184 36.3177 139.588 33.7627 142.727 33.7627Z" fill="#111318"/>
<path d="M157.687 34.239L157.363 35.863C157.146 35.712 156.712 35.516 156.193 35.516C154.504 35.516 153.79 37.422 153.79 39.479V44.935H151.927V33.979H153.681L153.768 35.365C154.439 34.434 155.284 33.762 156.301 33.762C156.973 33.762 157.449 34.022 157.687 34.239Z" fill="#111318"/>
<path d="M164.226 43.3977C166.478 43.3977 168.166 41.6007 168.166 39.4357C168.166 37.3147 166.478 35.5167 164.226 35.5167C161.996 35.5167 160.263 37.3147 160.263 39.4357C160.263 41.6007 161.996 43.3977 164.226 43.3977ZM163.944 33.7627C166.001 33.7627 167.668 34.9327 168.362 36.4697L168.448 33.9797H170.223V44.9347H168.448L168.362 42.4447C167.668 43.9817 166.001 45.1517 163.944 45.1517C160.805 45.1517 158.401 42.5957 158.401 39.4357C158.401 36.3177 160.805 33.7627 163.944 33.7627Z" fill="#111318"/>
<path d="M105.818 57.8948C105.818 54.2998 103.523 51.9618 100.383 51.9618H97.265V63.8278H100.383C103.523 63.8278 105.818 61.4898 105.818 57.8948ZM107.68 57.8948C107.68 62.2038 104.757 65.5818 100.383 65.5818H95.425V50.2078H100.383C104.757 50.2078 107.68 53.5858 107.68 57.8948Z" fill="#111318"/>
<path d="M111.272 65.5812H109.41V54.6252H111.272V65.5812ZM109.28 51.7452C109.28 51.1392 109.757 50.6852 110.341 50.6852C110.947 50.6852 111.402 51.1392 111.402 51.7452C111.402 52.3302 110.947 52.8072 110.341 52.8072C109.757 52.8072 109.28 52.3302 109.28 51.7452Z" fill="#111318"/>
<path d="M119.565 64.0442C121.817 64.0442 123.505 62.2472 123.505 60.0812C123.505 57.9602 121.817 56.1622 119.565 56.1622C117.335 56.1622 115.603 57.9602 115.603 60.0812C115.603 62.2472 117.335 64.0442 119.565 64.0442ZM119.284 54.4082C121.34 54.4082 123.007 55.5782 123.701 57.1152L123.787 54.6252H125.563V65.5812H123.787L123.701 63.0912C123.007 64.6282 121.34 65.7982 119.284 65.7982C116.144 65.7982 113.741 63.2422 113.741 60.0812C113.741 56.9642 116.144 54.4082 119.284 54.4082Z" fill="#111318"/>
<path d="M135.716 67.3137C135.716 65.8837 134.07 65.3857 131.775 65.3857C131.559 65.3857 131.363 65.3647 131.148 65.3427C130.476 65.6467 129.654 66.4047 129.654 67.2487C129.654 68.5257 130.887 69.2187 132.685 69.2187C134.46 69.2187 135.716 68.5697 135.716 67.3137ZM129.654 58.5227C129.654 59.9727 130.909 61.0557 132.425 61.0557C133.962 61.0557 135.175 59.9727 135.175 58.5227C135.175 57.0497 133.962 55.9677 132.425 55.9677C130.909 55.9677 129.654 57.0497 129.654 58.5227ZM137.47 67.2927C137.47 69.5427 135.261 70.7777 132.685 70.7777C130.108 70.7777 127.9 69.5427 127.9 67.2927C127.9 66.0797 128.592 65.2787 129.394 64.7807C128.809 64.4557 128.398 63.9787 128.398 63.3727C128.398 62.6367 129.026 62.1167 129.654 61.8137C128.57 61.0777 127.9 59.9087 127.9 58.5227C127.9 56.1627 129.848 54.4087 132.425 54.4087C133.204 54.4087 133.941 54.5827 134.59 54.8847L137.448 54.6257V56.2927L136.171 56.1837C136.669 56.8347 136.95 57.6347 136.95 58.5227C136.95 60.8617 134.98 62.6367 132.425 62.6367C131.84 62.6367 131.278 62.5497 130.779 62.3767C130.389 62.5497 130.152 62.7887 130.152 63.0697C130.152 63.6327 130.952 63.8057 132.273 63.8057C135.521 63.8057 137.47 65.1697 137.47 67.2927Z" fill="#111318"/>
<path d="M150.266 59.1721V65.5811H148.404V59.9511C148.404 57.2011 147.235 56.1621 145.545 56.1621C142.948 56.1621 141.908 58.4361 141.908 59.9951V65.5811H140.045V54.6251H141.799L141.886 56.5301C142.882 55.3611 144.311 54.4081 146.195 54.4081C148.728 54.4081 150.266 56.0761 150.266 59.1721Z" fill="#111318"/>
<path d="M161.913 60.0813C161.913 57.9603 160.225 56.1623 157.973 56.1623C155.742 56.1623 154.01 57.9603 154.01 60.0813C154.01 62.2473 155.742 64.0443 157.973 64.0443C160.225 64.0443 161.913 62.2473 161.913 60.0813ZM152.147 60.0813C152.147 56.9643 154.659 54.4083 157.973 54.4083C161.307 54.4083 163.775 56.9643 163.775 60.0813C163.775 63.2423 161.307 65.7983 157.973 65.7983C154.659 65.7983 152.147 63.2423 152.147 60.0813Z" fill="#111318"/>
<path d="M167.13 62.55C167.411 63.546 168.343 64.217 169.88 64.217C171.201 64.217 172.132 63.654 172.132 62.788C172.132 61.554 171.006 61.294 168.711 60.428C167.109 59.887 165.636 59.064 165.636 57.332C165.636 55.491 167.455 54.408 169.339 54.408C171.655 54.408 173.192 55.73 173.301 57.505H171.461C171.331 56.509 170.378 55.968 169.382 55.968C168.494 55.968 167.477 56.444 167.477 57.332C167.477 58.327 168.581 58.61 170.768 59.453C172.824 60.211 173.994 61.186 173.994 62.831C173.994 64.651 172.24 65.798 169.837 65.798C167.325 65.798 165.528 64.651 165.268 62.55H167.13Z" fill="#111318"/>
<path d="M181.029 56.3791H178.756V65.5811H176.916V56.3791H175.356V54.6251H176.916V51.3771H178.756V54.6251H181.029V56.3791Z" fill="#111318"/>
<path d="M184.73 65.5812H182.869V54.6252H184.73V65.5812ZM182.739 51.7452C182.739 51.1392 183.215 50.6852 183.8 50.6852C184.406 50.6852 184.861 51.1392 184.861 51.7452C184.861 52.3302 184.406 52.8072 183.8 52.8072C183.215 52.8072 182.739 52.3302 182.739 51.7452Z" fill="#111318"/>
<path d="M192.612 59.3889L197.635 65.5809H195.319L191.292 60.6449L189.472 62.3549V65.5809H187.61V49.3419H189.472V59.8869L195.037 54.6249H197.635L192.612 59.3889Z" fill="#111318"/>
<path d="M200.168 59.3449H207.4C207.292 57.6349 205.928 56.0759 203.784 56.0759C201.728 56.0759 200.233 57.5479 200.168 59.3449ZM209.262 60.6879H200.168C200.233 62.6799 201.705 64.1299 203.957 64.1299C205.755 64.1299 206.837 63.1569 207.314 62.1819L208.959 62.3989C208.526 63.8929 206.837 65.7979 203.957 65.7979C200.645 65.7979 198.306 63.3509 198.306 60.0379C198.306 56.9639 200.536 54.4079 203.784 54.4079C207.141 54.4079 209.262 57.1159 209.262 60.2109V60.6879Z" fill="#111318"/>
<path d="M213.74 63.9257H214.083C214.242 63.9257 214.383 63.8077 214.383 63.6087C214.383 63.4117 214.242 63.2927 214.083 63.2927H213.74V63.9257ZM214.059 64.0907H213.74V64.5767H213.567V63.1277H214.083C214.33 63.1277 214.557 63.3097 214.557 63.6087C214.557 63.8447 214.418 64.0047 214.24 64.0667L214.567 64.5767H214.367L214.059 64.0907Z" fill="#111318"/>
<path d="M214.042 65.5924C213.578 65.5924 213.16 65.4044 212.856 65.1014C212.552 64.7974 212.365 64.3784 212.364 63.9144C212.365 63.4514 212.552 63.0324 212.856 62.7284C213.16 62.4254 213.578 62.2374 214.042 62.2374C214.506 62.2374 214.924 62.4254 215.228 62.7284C215.532 63.0324 215.719 63.4514 215.72 63.9144C215.719 64.3784 215.532 64.7974 215.228 65.1014C214.924 65.4044 214.506 65.5924 214.042 65.5924ZM215.889 63.9144C215.888 62.8954 215.062 62.0684 214.042 62.0684C213.022 62.0684 212.196 62.8954 212.195 63.9144C212.196 64.9164 212.995 65.7274 213.99 65.7564V65.7614H214.042H214.094V65.7564C215.089 65.7274 215.888 64.9164 215.889 63.9144Z" fill="#111318"/>
</svg>
